<svg xmlns="http://www.w3.org/2000/svg" xmlns:xlink="http://www.w3.org/1999/xlink" width="24" height="24" version="1.1" viewBox="0 0 24 24"><title>Icon/close Copy 5</title><desc>Created with Sketch.</desc><g id="Icon/close-Copy-5" fill="none" fill-rule="evenodd" stroke="none" stroke-width="1"><path id="Combined-Shape" fill="#2A2A2A" d="M3,21 L8,21 L8,22 L3,22 L2,22 L2,16 L3,16 L3,21 Z" transform="translate(5.000000, 19.000000) rotate(-180.000000) translate(-5.000000, -19.000000)"/><path id="Combined-Shape-Copy-2" fill="#2A2A2A" d="M5,19 L10,19 L10,20 L5,20 L4,20 L4,14 L5,14 L5,19 Z" transform="translate(7.000000, 17.000000) rotate(-180.000000) translate(-7.000000, -17.000000)"/><path id="Combined-Shape-Copy-3" fill="#2A2A2A" d="M15,9 L20,9 L20,10 L15,10 L14,10 L14,4 L15,4 L15,9 Z"/><path id="Combined-Shape-Copy" fill="#2A2A2A" d="M17,7 L22,7 L22,8 L17,8 L16,8 L16,2 L17,2 L17,7 Z"/></g></svg>