<svg xmlns="http://www.w3.org/2000/svg" xmlns:xlink="http://www.w3.org/1999/xlink" width="64" height="64" version="1.1" viewBox="0 0 64 64"><title>icon/component/card</title><desc>Created with Sketch.</desc><g id="icon/component/card" fill="none" fill-rule="evenodd" stroke="none" stroke-width="1"><g id="Page-1" transform="translate(6.000000, 6.000000)"><path id="Fill-1" fill="#CADEFF" d="M50.3306,52.1398 L0.8086,52.1398 C0.3626,52.1398 -0.0004,51.7778 -0.0004,51.3308 L-0.0004,1.8088 C-0.0004,1.3628 0.3626,0.9998 0.8086,0.9998 L50.3306,0.9998 C50.7776,0.9998 51.1406,1.3628 51.1406,1.8088 L51.1406,51.3308 C51.1406,51.7778 50.7776,52.1398 50.3306,52.1398"/><path id="Fill-3" fill="#FFF" d="M48.2505,48.1672 L4.0645,48.1672 C3.6585,48.1672 3.3295,47.8382 3.3295,47.4322 L3.3295,1.5332 C3.3295,1.1272 3.6585,0.7982 4.0645,0.7982 L48.2505,0.7982 C48.6565,0.7982 48.9855,1.1272 48.9855,1.5332 L48.9855,47.4322 C48.9855,47.8382 48.6565,48.1672 48.2505,48.1672" opacity=".7"/><path id="Fill-5" fill="#6DA3F2" d="M51.0474,8.3449 L0.5364,8.3449 C0.3664,8.3449 0.2284,8.2069 0.2284,8.0369 L0.2284,1.2409 C0.2284,1.0709 0.3664,0.9329 0.5364,0.9329 L51.0474,0.9329 C51.2184,0.9329 51.3564,1.0709 51.3564,1.2409 L51.3564,8.0369 C51.3564,8.2069 51.2184,8.3449 51.0474,8.3449"/><path id="Fill-7" fill="#97BDFF" d="M51.0572,8.3449 L3.5372,8.3449 C3.3722,8.3449 3.2392,8.2109 3.2392,8.0469 L3.2392,1.2319 C3.2392,1.0669 3.3722,0.9329 3.5372,0.9329 L51.0572,0.9329 C51.2222,0.9329 51.3562,1.0669 51.3562,1.2319 L51.3562,8.0469 C51.3562,8.2109 51.2222,8.3449 51.0572,8.3449"/><path id="Stroke-9" fill="#457AE6" fill-rule="nonzero" d="M50.1406,51.1398 L50.1406,1.9998 L0.9996,1.9998 L0.9996,51.1398 L50.1406,51.1398 Z M50.3306,53.1398 L0.8086,53.1398 C-0.189839185,53.1398 -1.0004,52.3299308 -1.0004,51.3308 L-1.0004,1.8088 C-1.0004,0.81051525 -0.18968475,-0.0002 0.8086,-0.0002 L50.3306,-0.0002 C51.3295391,-0.0002 52.1406,0.810169505 52.1406,1.8088 L52.1406,51.3308 C52.1406,52.3302766 51.329694,53.1398 50.3306,53.1398 Z"/><polygon id="Stroke-11" fill="#457AE6" fill-rule="nonzero" points="5.157 20.155 5.157 18.155 27.513 18.155 27.513 20.155"/><polygon id="Stroke-13" fill="#457AE6" fill-rule="nonzero" points="5.157 16.01 5.157 14.01 17.672 14.01 17.672 16.01"/><polygon id="Stroke-15" fill="#457AE6" fill-rule="nonzero" points="-.505 9.236 -.505 7.236 46.926 7.236 46.926 9.236"/><polygon id="Stroke-17" fill="#457AE6" fill-rule="nonzero" points=".165 48.447 .165 46.447 50.965 46.447 50.965 48.447"/></g></g></svg>