<svg xmlns="http://www.w3.org/2000/svg" xmlns:xlink="http://www.w3.org/1999/xlink" width="64" height="64" version="1.1" viewBox="0 0 64 64"><title>icon/component/modal</title><desc>Created with Sketch.</desc><defs><polygon id="path-1" points="0 51.803 51.803 51.803 51.803 0 0 0"/></defs><g id="icon/component/modal" fill="none" fill-rule="evenodd" stroke="none" stroke-width="1"><g id="Page-1" transform="translate(6.000000, 6.000000)"><path id="Fill-1" fill="#CADEFF" d="M50.0154,50.803 L1.7874,50.803 C1.3524,50.803 0.9994,50.45 0.9994,50.015 L0.9994,1.787 C0.9994,1.353 1.3524,1 1.7874,1 L50.0154,1 C50.4504,1 50.8034,1.353 50.8034,1.787 L50.8034,50.015 C50.8034,50.45 50.4504,50.803 50.0154,50.803"/><mask id="mask-2" fill="#fff"><use xlink:href="#path-1"/></mask><polygon id="Fill-3" fill="#97BDFF" points="26.101 50.803 50.015 50.803 50.015 39.832 26.101 39.832" mask="url(#mask-2)"/><polygon id="Fill-5" fill="#97BDFF" points="1.164 50.803 25.078 50.803 25.078 39.832 1.164 39.832" mask="url(#mask-2)"/><polygon id="Fill-6" fill="#6DA3F2" points="1.583 50.803 50.015 50.803 50.015 47.934 1.583 47.934" mask="url(#mask-2)"/><path id="Fill-8" fill="#FFF" d="M47.989,39.6936 L4.959,39.6936 C4.563,39.6936 4.242,39.3736 4.242,38.9776 L4.242,1.5196 C4.242,1.1236 4.563,0.8026 4.959,0.8026 L47.989,0.8026 C48.385,0.8026 48.706,1.1236 48.706,1.5196 L48.706,38.9776 C48.706,39.3736 48.385,39.6936 47.989,39.6936" mask="url(#mask-2)"/><path id="Stroke-9" fill="#457AE6" fill-rule="nonzero" d="M49.8034,49.803 L49.8034,2 L1.9994,2 L1.9994,49.803 L49.8034,49.803 Z M50.0154,51.803 L1.7874,51.803 C0.80011525,51.803 -0.0006,51.0022847 -0.0006,50.015 L-0.0006,1.787 C-0.0006,0.800364186 0.80046626,-7.10542736e-15 1.7874,-7.10542736e-15 L50.0154,-7.10542736e-15 C51.0023337,-7.10542736e-15 51.8034,0.800364186 51.8034,1.787 L51.8034,50.015 C51.8034,51.0022847 51.0026847,51.803 50.0154,51.803 Z" mask="url(#mask-2)"/><polygon id="Stroke-10" fill="#457AE6" fill-rule="nonzero" points="5.996 24.181 5.996 22.181 16.539 22.181 16.539 24.181" mask="url(#mask-2)"/><polygon id="Stroke-11" fill="#457AE6" fill-rule="nonzero" points="5.996 19.144 5.996 17.144 38.692 17.144 38.692 19.144" mask="url(#mask-2)"/><polygon id="Stroke-12" fill="#457AE6" fill-rule="nonzero" points=".482 10.66 .482 8.66 46.726 8.66 46.726 10.66" mask="url(#mask-2)"/><polygon id="Stroke-13" fill="#457AE6" fill-rule="nonzero" points="1.16 40.415 1.16 38.415 50.632 38.415 50.632 40.415" mask="url(#mask-2)"/><polygon id="Stroke-14" fill="#457AE6" fill-rule="nonzero" points="12.109 28.514 12.109 26.514 22.652 26.514 22.652 28.514" mask="url(#mask-2)"/><polygon id="Stroke-15" fill="#457AE6" fill-rule="nonzero" points="25.007 38.746 27.007 38.746 27.007 49.988 25.007 49.988" mask="url(#mask-2)"/></g></g></svg>