<svg xmlns="http://www.w3.org/2000/svg" xmlns:xlink="http://www.w3.org/1999/xlink" viewBox="0 0 360 231"><defs><style>.cls-1{fill:#fff}.cls-2{mask:url(#mask)}.cls-3{fill:url(#linear-gradient)}.cls-4{fill:url(#linear-gradient-2)}.cls-5{fill:url(#linear-gradient-3)}.cls-6{fill:url(#linear-gradient-4)}.cls-7{filter:url(#luminosity-invert-noclip)}</style><filter id="luminosity-invert-noclip" width="370.86" height="197.78" x="-6.21" y="39.6" color-interpolation-filters="sRGB" filterUnits="userSpaceOnUse"><feColorMatrix result="invert" values="-1 0 0 0 1 0 -1 0 0 1 0 0 -1 0 1 0 0 0 1 0"/><feFlood flood-color="#fff" result="bg"/><feBlend in="invert" in2="bg"/></filter><mask id="mask" width="370.86" height="197.78" x="-6.21" y="39.6" maskUnits="userSpaceOnUse"><g class="cls-7"><polygon points="364.66 205.37 309.23 237.38 253.79 205.37 253.79 141.36 309.23 109.36 364.66 141.36 364.66 205.37" class="cls-1"/><polygon points="104.66 205.37 49.23 237.38 -6.21 205.37 -6.21 141.36 49.23 109.36 104.66 141.36 104.66 205.37" class="cls-1"/></g></mask><linearGradient id="linear-gradient" x1="179.23" x2="179.23" y1="231" y2="39.6" gradientUnits="userSpaceOnUse"><stop offset=".25" stop-color="#fff"/><stop offset="1" stop-color="#c0d7ff"/></linearGradient><linearGradient id="linear-gradient-2" x1="179.23" x2="179.23" y1="44.97" gradientUnits="userSpaceOnUse"><stop offset="0" stop-color="#8c96ff"/><stop offset="1" stop-color="#4757ff"/></linearGradient><linearGradient id="linear-gradient-3" x1="222.04" x2="176.53" y1="109.17" y2="30.34" gradientUnits="userSpaceOnUse"><stop offset="0" stop-color="#7396ff"/><stop offset="1" stop-color="#36f"/></linearGradient><linearGradient id="linear-gradient-4" x1="175.91" x2="140.91" y1="122.14" y2="25.99" gradientUnits="userSpaceOnUse"><stop offset="0" stop-color="#73adff"/><stop offset="1" stop-color="#006aff"/></linearGradient></defs><title>5</title><g id="Layer_2" data-name="Layer 2"><g id="Layer_12" data-name="Layer 12"><rect width="360" height="231" class="cls-1"/><g class="cls-2"><rect width="260" height="191.4" x="49.23" y="39.6" class="cls-3" rx="40" ry="40"/></g><path d="M196.64,10V35H161.81V10h34.83m10-10H151.81V45h54.83V0Z" class="cls-4"/><polygon points="225.23 107.33 179.23 120.93 179.23 28.79 225.23 28.79 225.23 107.33" class="cls-5"/><polygon points="179.23 120.93 133.22 107.33 133.22 28.79 179.23 28.79 179.23 120.93" class="cls-6"/><rect width="11.22" height="29.17" x="173.62" y="59.09" class="cls-1"/></g></g></svg>