<svg xmlns="http://www.w3.org/2000/svg" xmlns:xlink="http://www.w3.org/1999/xlink" viewBox="0 0 360 231"><defs><style>.cls-1,.cls-2{fill:#fff}.cls-2{opacity:.74}.cls-3{mask:url(#mask)}.cls-4{fill:url(#linear-gradient)}.cls-5{fill:url(#linear-gradient-2)}.cls-6{fill:url(#linear-gradient-3)}.cls-7{filter:url(#luminosity-invert-noclip)}</style><filter id="luminosity-invert-noclip" width="261.85" height="191.4" x="47.46" y="39.6" color-interpolation-filters="sRGB" filterUnits="userSpaceOnUse"><feColorMatrix result="invert" values="-1 0 0 0 1 0 -1 0 0 1 0 0 -1 0 1 0 0 0 1 0"/><feFlood flood-color="#fff" result="bg"/><feBlend in="invert" in2="bg"/></filter><mask id="mask" width="261.85" height="191.4" x="47.46" y="39.6" maskUnits="userSpaceOnUse"><g class="cls-7"><rect width="49.85" height="112.33" x="47.46" y="118.67" class="cls-1"/><rect width="49.85" height="73.67" x="97.31" y="157.33" class="cls-2"/><rect width="49.85" height="73.67" x="209.6" y="157.33" class="cls-2"/><rect width="65" height="47.67" x="144.6" y="183.33" class="cls-2"/><rect width="49.85" height="112.33" x="259.46" y="118.67" class="cls-1"/></g></mask><linearGradient id="linear-gradient" x1="179.23" x2="179.23" y1="231" y2="39.6" gradientUnits="userSpaceOnUse"><stop offset=".25" stop-color="#fff"/><stop offset="1" stop-color="#c0d7ff"/></linearGradient><linearGradient id="linear-gradient-2" x1="180" x2="180" y1="135" y2="40" gradientUnits="userSpaceOnUse"><stop offset="0" stop-color="#7396ff"/><stop offset="1" stop-color="#36f"/></linearGradient><linearGradient id="linear-gradient-3" x1="180" x2="180" y1="70" y2="10" gradientUnits="userSpaceOnUse"><stop offset="0" stop-color="#73adff"/><stop offset="1" stop-color="#006aff"/></linearGradient></defs><title>3</title><g id="Layer_2" data-name="Layer 2"><g id="Layer_10" data-name="Layer 10"><rect width="360" height="231" class="cls-1"/><g class="cls-3"><rect width="260" height="191.4" x="49.23" y="39.6" class="cls-4" rx="40" ry="40"/></g><path d="M137,40h86a0,0,0,0,1,0,0v93a2,2,0,0,1-2,2H139a2,2,0,0,1-2-2V40A0,0,0,0,1,137,40Z" class="cls-5"/><rect width="60" height="6" x="150" y="92" class="cls-1" rx="3" ry="3"/><rect width="60" height="6" x="150" y="82" class="cls-1" rx="3" ry="3"/><rect width="60" height="6" x="150" y="102" class="cls-1" rx="3" ry="3"/><rect width="40.31" height="6" x="150" y="112" class="cls-1" rx="3" ry="3"/><rect width="60" height="60" x="150" y="10" class="cls-6" rx="11.76" ry="11.76"/><rect width="11.11" height="8.89" x="174.44" y="17.78" class="cls-1"/><rect width="11.11" height="8.89" x="159.05" y="26.67" class="cls-1" transform="translate(55.36 158.11) rotate(-60)"/><rect width="11.11" height="8.89" x="159.05" y="44.44" class="cls-1" transform="translate(204.57 215.88) rotate(-120)"/><rect width="11.11" height="8.89" x="174.44" y="53.33" class="cls-1" transform="translate(360 115.56) rotate(-180)"/><rect width="11.11" height="8.89" x="189.84" y="44.44" class="cls-1" transform="translate(335.43 -95.88) rotate(120)"/><rect width="11.11" height="8.89" x="189.84" y="26.67" class="cls-1" transform="translate(124.64 -153.66) rotate(60)"/><path d="M180,23.33A16.67,16.67,0,1,0,196.67,40,16.68,16.68,0,0,0,180,23.33ZM180,50a10,10,0,1,1,10-10A10,10,0,0,1,180,50Z" class="cls-1"/></g></g></svg>